<?xml version="1.0" encoding="UTF-8"?>
<svg width="20px" height="21px" viewBox="0 0 20 21" version="1.1" xmlns="http://www.w3.org/2000/svg" xmlns:xlink="http://www.w3.org/1999/xlink">
    <!-- Generator: Sketch 47.1 (45422) - http://www.bohemiancoding.com/sketch -->
    <title>Untitled 15</title>
    <desc>Created with Sketch.</desc>
    <defs></defs>
    <g id="Page-1" stroke="none" stroke-width="1" fill="none" fill-rule="evenodd">
        <g id="img" fill-rule="nonzero">
            <polygon id="Shape" fill="#DD0031" points="10 0 10 0 10 0 0 3.486 1.52524168 16.4115 10 21 10 21 10 21 18.4747583 16.4115 20 3.486"></polygon>
            <polygon id="Shape" fill="#C3002F" points="10 0 10 2.331 10 2.3205 10 12.957 10 12.957 10 21 10 21 18.4747583 16.4115 20 3.486"></polygon>
            <path d="M10.010327,2 L4,16 L4,16 L6.24096386,16 L6.24096386,16 L7.44922547,12.867433 L12.5507745,12.867433 L13.7590361,16 L13.7590361,16 L16,16 L16,16 L10.010327,2 L10.010327,2 L10.010327,2 L10.010327,2 L10.010327,2 Z M11.7659208,10.9363985 L8.25473322,10.9363985 L10.010327,6.548659 L11.7659208,10.9363985 Z" id="Shape" fill="#FFFFFF"></path>
        </g>
    </g>
</svg>